<svg xmlns="http://www.w3.org/2000/svg" xmlns:xlink="http://www.w3.org/1999/xlink" width="1122" zoomAndPan="magnify" viewBox="0 0 841.92 595.499987" height="793" preserveAspectRatio="xMidYMid meet" version="1.0"><defs><clipPath id="68e1b8d327"><path d="M 153.523438 30.042969 L 687.667969 30.042969 L 687.667969 564.1875 L 153.523438 564.1875 Z M 153.523438 30.042969 " clip-rule="nonzero"/></clipPath></defs><g clip-path="url(#68e1b8d327)"><path fill="#5ce1e6" d="M 420.597656 564.1875 C 273.304688 564.1875 153.523438 444.40625 153.523438 297.117188 C 153.523438 149.824219 273.304688 30.042969 420.597656 30.042969 C 567.886719 30.042969 687.667969 149.824219 687.667969 297.117188 C 687.667969 444.40625 567.886719 564.1875 420.597656 564.1875 Z M 420.597656 45.886719 C 282.058594 45.886719 169.367188 158.578125 169.367188 297.117188 C 169.367188 435.652344 282.058594 548.347656 420.597656 548.347656 C 559.132812 548.347656 671.828125 435.652344 671.828125 297.117188 C 671.828125 158.578125 559.132812 45.886719 420.597656 45.886719 Z M 420.597656 45.886719 " fill-opacity="1" fill-rule="nonzero"/></g><path fill="#5ce1e6" d="M 423.375 280.441406 C 436.714844 280.441406 447.277344 284.191406 455.058594 291.695312 C 462.976562 299.199219 466.867188 309.34375 466.867188 322.40625 C 466.867188 337.828125 462.144531 349.640625 452.695312 357.839844 C 443.246094 366.039062 429.628906 370.207031 412.121094 370.207031 C 396.835938 370.207031 384.46875 367.703125 375.019531 362.839844 L 375.019531 337.691406 C 380.019531 340.332031 385.71875 342.414062 392.25 344.082031 C 398.78125 345.75 405.03125 346.582031 411.007812 346.582031 C 428.792969 346.582031 437.546875 339.359375 437.546875 324.769531 C 437.546875 310.871094 428.378906 303.925781 410.035156 303.925781 C 406.699219 303.925781 403.085938 304.203125 399.058594 304.898438 C 395.027344 305.59375 391.832031 306.285156 389.332031 306.980469 L 377.796875 300.730469 L 382.9375 230.695312 L 457.558594 230.695312 L 457.558594 255.429688 L 408.507812 255.429688 L 406.003906 282.386719 L 409.339844 281.691406 C 412.953125 280.859375 417.679688 280.441406 423.375 280.441406 Z M 423.375 280.441406 " fill-opacity="1" fill-rule="nonzero"/></svg>