<svg xmlns="http://www.w3.org/2000/svg" xmlns:xlink="http://www.w3.org/1999/xlink" width="1122" zoomAndPan="magnify" viewBox="0 0 841.92 595.499987" height="793" preserveAspectRatio="xMidYMid meet" version="1.0"><defs><clipPath id="d05adad2ab"><path d="M 174.445312 50.964844 L 667.386719 50.964844 L 667.386719 543.90625 L 174.445312 543.90625 Z M 174.445312 50.964844 " clip-rule="nonzero"/></clipPath></defs><g clip-path="url(#d05adad2ab)"><path fill="#182f41" d="M 420.914062 543.90625 C 284.984375 543.90625 174.445312 433.367188 174.445312 297.433594 C 174.445312 161.503906 284.984375 50.964844 420.914062 50.964844 C 556.847656 50.964844 667.386719 161.503906 667.386719 297.433594 C 667.386719 433.367188 556.847656 543.90625 420.914062 543.90625 Z M 420.914062 65.585938 C 293.0625 65.585938 189.066406 169.585938 189.066406 297.433594 C 189.066406 425.285156 293.0625 529.285156 420.914062 529.285156 C 548.765625 529.285156 652.765625 425.285156 652.765625 297.433594 C 652.765625 169.585938 548.765625 65.585938 420.914062 65.585938 Z M 420.914062 65.585938 " fill-opacity="1" fill-rule="nonzero"/></g><path fill="#182f41" d="M 423.480469 282.046875 C 435.792969 282.046875 445.535156 285.507812 452.71875 292.433594 C 460.027344 299.359375 463.617188 308.71875 463.617188 320.773438 C 463.617188 335.007812 459.257812 345.910156 450.539062 353.476562 C 441.816406 361.039062 429.25 364.886719 413.09375 364.886719 C 398.988281 364.886719 387.574219 362.578125 378.855469 358.089844 L 378.855469 334.878906 C 383.472656 337.316406 388.726562 339.242188 394.753906 340.777344 C 400.78125 342.316406 406.554688 343.085938 412.066406 343.085938 C 428.480469 343.085938 436.558594 336.417969 436.558594 322.953125 C 436.558594 310.128906 428.097656 303.71875 411.167969 303.71875 C 408.09375 303.71875 404.757812 303.976562 401.039062 304.617188 C 397.320312 305.257812 394.371094 305.898438 392.0625 306.539062 L 381.417969 300.769531 L 386.164062 236.136719 L 455.027344 236.136719 L 455.027344 258.964844 L 409.757812 258.964844 L 407.449219 283.84375 L 410.527344 283.203125 C 413.863281 282.433594 418.222656 282.046875 423.480469 282.046875 Z M 423.480469 282.046875 " fill-opacity="1" fill-rule="nonzero"/></svg>