<svg xmlns="http://www.w3.org/2000/svg" xmlns:xlink="http://www.w3.org/1999/xlink" width="1122" zoomAndPan="magnify" viewBox="0 0 841.92 595.499987" height="793" preserveAspectRatio="xMidYMid meet" version="1.0"><defs><clipPath id="346c41dd80"><path d="M 174.445312 50.964844 L 667.386719 50.964844 L 667.386719 543.90625 L 174.445312 543.90625 Z M 174.445312 50.964844 " clip-rule="nonzero"/></clipPath></defs><g clip-path="url(#346c41dd80)"><path fill="#182f41" d="M 420.914062 543.90625 C 284.984375 543.90625 174.445312 433.367188 174.445312 297.433594 C 174.445312 161.503906 284.984375 50.964844 420.914062 50.964844 C 556.847656 50.964844 667.386719 161.503906 667.386719 297.433594 C 667.386719 433.367188 556.847656 543.90625 420.914062 543.90625 Z M 420.914062 65.585938 C 293.0625 65.585938 189.066406 169.585938 189.066406 297.433594 C 189.066406 425.285156 293.0625 529.285156 420.914062 529.285156 C 548.765625 529.285156 652.765625 425.285156 652.765625 297.433594 C 652.765625 169.585938 548.765625 65.585938 420.914062 65.585938 Z M 420.914062 65.585938 " fill-opacity="1" fill-rule="nonzero"/></g><path fill="#182f41" d="M 468.875 336.804688 L 453.617188 336.804688 L 453.617188 363.09375 L 427.457031 363.09375 L 427.457031 336.804688 L 373.339844 336.804688 L 373.339844 318.210938 L 428.996094 236.265625 L 453.617188 236.265625 L 453.617188 316.03125 L 468.875 316.03125 Z M 427.328125 316.03125 L 427.328125 294.484375 C 427.328125 290.894531 427.457031 285.636719 427.710938 278.839844 C 427.96875 272.042969 428.226562 268.070312 428.351562 266.914062 L 427.710938 266.914062 C 425.53125 271.660156 422.96875 276.277344 420.019531 280.765625 L 396.808594 315.902344 L 427.328125 315.902344 Z M 427.328125 316.03125 " fill-opacity="1" fill-rule="nonzero"/></svg>