<svg xmlns="http://www.w3.org/2000/svg" xmlns:xlink="http://www.w3.org/1999/xlink" width="1122" zoomAndPan="magnify" viewBox="0 0 841.92 595.499987" height="793" preserveAspectRatio="xMidYMid meet" version="1.0"><defs><clipPath id="daf9418e28"><path d="M 141.496094 18.015625 L 700.359375 18.015625 L 700.359375 576.878906 L 141.496094 576.878906 Z M 141.496094 18.015625 " clip-rule="nonzero"/></clipPath></defs><g clip-path="url(#daf9418e28)"><path fill="#5ce1e6" d="M 420.929688 576.878906 C 266.820312 576.878906 141.496094 451.558594 141.496094 297.449219 C 141.496094 143.339844 266.820312 18.015625 420.929688 18.015625 C 575.039062 18.015625 700.359375 143.339844 700.359375 297.449219 C 700.359375 451.558594 575.039062 576.878906 420.929688 576.878906 Z M 420.929688 34.589844 C 275.980469 34.589844 158.070312 152.5 158.070312 297.449219 C 158.070312 442.398438 275.980469 560.308594 420.929688 560.308594 C 565.878906 560.308594 683.785156 442.398438 683.785156 297.449219 C 683.785156 152.5 565.878906 34.589844 420.929688 34.589844 Z M 420.929688 34.589844 " fill-opacity="1" fill-rule="nonzero"/></g><path fill="#5ce1e6" d="M 475.304688 342.082031 L 458.003906 342.082031 L 458.003906 371.886719 L 428.34375 371.886719 L 428.34375 342.082031 L 366.992188 342.082031 L 366.992188 321 L 430.089844 228.097656 L 458.003906 228.097656 L 458.003906 318.53125 L 475.304688 318.53125 Z M 428.199219 318.53125 L 428.199219 294.105469 C 428.199219 290.035156 428.34375 284.074219 428.632812 276.367188 C 428.925781 268.660156 429.214844 264.15625 429.359375 262.847656 L 428.632812 262.847656 C 426.164062 268.226562 423.253906 273.460938 419.910156 278.546875 L 393.597656 318.382812 L 428.199219 318.382812 Z M 428.199219 318.53125 " fill-opacity="1" fill-rule="nonzero"/></svg>