<svg xmlns="http://www.w3.org/2000/svg" xmlns:xlink="http://www.w3.org/1999/xlink" width="1122" zoomAndPan="magnify" viewBox="0 0 841.92 595.499987" height="793" preserveAspectRatio="xMidYMid meet" version="1.0"><defs><clipPath id="8e05e98484"><path d="M 174.488281 42.554688 L 667.429688 42.554688 L 667.429688 535.496094 L 174.488281 535.496094 Z M 174.488281 42.554688 " clip-rule="nonzero"/></clipPath></defs><g clip-path="url(#8e05e98484)"><path fill="#5ce1e6" d="M 420.957031 535.496094 C 285.027344 535.496094 174.488281 424.957031 174.488281 289.027344 C 174.488281 153.097656 285.027344 42.554688 420.957031 42.554688 C 556.886719 42.554688 667.429688 153.097656 667.429688 289.027344 C 667.429688 424.957031 556.886719 535.496094 420.957031 535.496094 Z M 420.957031 57.175781 C 293.105469 57.175781 189.105469 161.175781 189.105469 289.027344 C 189.105469 416.878906 293.105469 520.878906 420.957031 520.878906 C 548.808594 520.878906 652.808594 416.878906 652.808594 289.027344 C 652.808594 161.175781 548.808594 57.175781 420.957031 57.175781 Z M 420.957031 57.175781 " fill-opacity="1" fill-rule="nonzero"/></g><path fill="#5ce1e6" d="M 443.65625 354.683594 L 416.855469 354.683594 L 416.855469 281.332031 L 417.109375 269.277344 L 417.496094 256.070312 C 413.007812 260.558594 409.929688 263.507812 408.261719 264.789062 L 393.644531 276.460938 L 380.691406 260.300781 L 421.597656 227.730469 L 443.65625 227.730469 Z M 443.65625 354.683594 " fill-opacity="1" fill-rule="nonzero"/></svg>