<svg xmlns="http://www.w3.org/2000/svg" xmlns:xlink="http://www.w3.org/1999/xlink" width="1122" zoomAndPan="magnify" viewBox="0 0 841.92 595.499987" height="793" preserveAspectRatio="xMidYMid meet" version="1.0"><defs><clipPath id="ef441a75c1"><path d="M 158.730469 35.25 L 683.132812 35.25 L 683.132812 559.652344 L 158.730469 559.652344 Z M 158.730469 35.25 " clip-rule="nonzero"/></clipPath></defs><g clip-path="url(#ef441a75c1)"><path fill="#5ce1e6" d="M 420.933594 559.652344 C 276.324219 559.652344 158.730469 442.058594 158.730469 297.453125 C 158.730469 152.84375 276.324219 35.25 420.933594 35.25 C 565.539062 35.25 683.132812 152.84375 683.132812 297.453125 C 683.132812 442.058594 565.539062 559.652344 420.933594 559.652344 Z M 420.933594 50.800781 C 284.921875 50.800781 174.28125 161.441406 174.28125 297.453125 C 174.28125 433.464844 284.921875 544.101562 420.933594 544.101562 C 556.945312 544.101562 667.582031 433.464844 667.582031 297.453125 C 667.582031 161.441406 556.945312 50.800781 420.933594 50.800781 Z M 420.933594 50.800781 " fill-opacity="1" fill-rule="nonzero"/></g><path fill="#5ce1e6" d="M 463.632812 262.527344 C 463.632812 270.988281 461.039062 278.082031 455.992188 284.082031 C 450.945312 289.949219 443.714844 294.042969 434.4375 296.222656 L 434.4375 296.769531 C 445.351562 298.132812 453.535156 301.410156 459.128906 306.730469 C 464.722656 312.050781 467.589844 319.144531 467.589844 328.011719 C 467.589844 340.96875 462.8125 351.066406 453.402344 358.296875 C 443.988281 365.527344 430.480469 369.210938 413.019531 369.210938 C 398.421875 369.210938 385.328125 366.753906 374.003906 361.980469 L 374.003906 337.695312 C 379.1875 340.289062 385.054688 342.472656 391.328125 344.109375 C 397.605469 345.746094 403.878906 346.5625 410.019531 346.5625 C 419.433594 346.5625 426.390625 344.925781 430.890625 341.789062 C 435.394531 338.652344 437.574219 333.46875 437.574219 326.375 C 437.574219 320.097656 434.984375 315.597656 429.800781 312.867188 C 424.617188 310.140625 416.429688 308.910156 405.109375 308.910156 L 394.875 308.910156 L 394.875 287.085938 L 405.242188 287.085938 C 415.75 287.085938 423.386719 285.71875 428.164062 282.992188 C 432.9375 280.261719 435.394531 275.625 435.394531 268.941406 C 435.394531 258.707031 428.980469 253.660156 416.15625 253.660156 C 411.792969 253.660156 407.152344 254.34375 402.652344 255.84375 C 398.011719 257.34375 392.964844 259.9375 387.371094 263.484375 L 374.140625 243.839844 C 386.417969 234.972656 401.152344 230.605469 418.203125 230.605469 C 432.117188 230.605469 443.167969 233.46875 451.355469 239.0625 C 459.539062 244.65625 463.632812 252.433594 463.632812 262.527344 Z M 463.632812 262.527344 " fill-opacity="1" fill-rule="nonzero"/></svg>