<svg xmlns="http://www.w3.org/2000/svg" xmlns:xlink="http://www.w3.org/1999/xlink" width="1122" zoomAndPan="magnify" viewBox="0 0 841.92 595.499987" height="793" preserveAspectRatio="xMidYMid meet" version="1.0"><defs><clipPath id="99e35954b4"><path d="M 169.164062 31.90625 L 672.589844 31.90625 L 672.589844 535.332031 L 169.164062 535.332031 Z M 169.164062 31.90625 " clip-rule="nonzero"/></clipPath></defs><g clip-path="url(#99e35954b4)"><path fill="#5ce1e6" d="M 420.875 535.332031 C 282.054688 535.332031 169.164062 422.441406 169.164062 283.617188 C 169.164062 144.796875 282.054688 31.90625 420.875 31.90625 C 559.699219 31.90625 672.589844 144.796875 672.589844 283.617188 C 672.589844 422.441406 559.699219 535.332031 420.875 535.332031 Z M 420.875 46.835938 C 290.304688 46.835938 184.09375 153.046875 184.09375 283.617188 C 184.09375 414.191406 290.304688 520.402344 420.875 520.402344 C 551.449219 520.402344 657.660156 414.191406 657.660156 283.617188 C 657.660156 153.046875 551.449219 46.835938 420.875 46.835938 Z M 420.875 46.835938 " fill-opacity="1" fill-rule="nonzero"/></g><path fill="#5ce1e6" d="M 466.976562 350.671875 L 376.347656 350.671875 L 376.347656 331.683594 L 408.828125 298.808594 C 418.519531 288.988281 424.804688 282.046875 427.6875 278.25 C 430.699219 274.449219 432.792969 270.914062 434.105469 267.640625 C 435.414062 264.367188 436.070312 260.960938 436.070312 257.558594 C 436.070312 252.316406 434.628906 248.519531 431.746094 245.902344 C 428.867188 243.414062 425.066406 242.101562 420.222656 242.101562 C 415.246094 242.101562 410.269531 243.28125 405.554688 245.507812 C 400.839844 247.867188 395.863281 251.140625 390.753906 255.332031 L 375.957031 237.78125 C 382.371094 232.410156 387.613281 228.484375 391.800781 226.257812 C 395.992188 224.03125 400.578125 222.328125 405.554688 221.019531 C 410.53125 219.839844 416.03125 219.183594 422.1875 219.183594 C 430.304688 219.183594 437.378906 220.625 443.664062 223.636719 C 449.820312 226.648438 454.664062 230.707031 458.070312 236.078125 C 461.476562 241.449219 463.179688 247.472656 463.179688 254.28125 C 463.179688 260.308594 462.128906 265.808594 460.035156 271.046875 C 457.9375 276.285156 454.664062 281.652344 450.34375 287.15625 C 445.890625 292.65625 438.164062 300.511719 427.03125 310.597656 L 410.398438 326.3125 L 410.398438 327.492188 L 466.84375 327.492188 L 466.84375 350.671875 Z M 466.976562 350.671875 " fill-opacity="1" fill-rule="nonzero"/></svg>